<svg width="136" height="36" viewBox="0 0 136 36" fill="none" xmlns="http://www.w3.org/2000/svg">
<path d="M0.444336 14.027C0.444336 12.8222 0.662675 11.7052 1.09838 10.6759C1.53506 9.64756 2.13744 8.75373 2.9065 7.99539C3.67556 7.23705 4.57523 6.63955 5.60357 6.20287C6.6319 5.76619 7.7392 5.54785 8.92349 5.54785C10.1078 5.54785 11.2141 5.77106 12.2434 6.21846C13.2727 6.66586 14.1656 7.26825 14.9239 8.02658C15.6823 8.78492 16.2846 9.67875 16.732 10.7071C17.1785 11.7354 17.4026 12.8427 17.4026 14.027C17.4026 15.2113 17.1794 16.3176 16.732 17.3469C16.2846 18.3753 15.6823 19.2691 14.9239 20.0274C14.1646 20.7858 13.2717 21.3891 12.2434 21.8355C11.2151 22.282 10.1088 22.5062 8.92349 22.5062C8.02967 22.5062 7.13097 22.3239 6.22642 21.9603C5.32285 21.5967 4.60057 21.1659 4.0596 20.6668V31.7115H0.444336V14.027ZM4.06057 14.027C4.06057 14.6927 4.19021 15.3205 4.45047 15.9131C4.70974 16.5057 5.0587 17.0194 5.4944 17.4561C5.93108 17.8928 6.44573 18.2408 7.03739 18.5C7.63003 18.7603 8.25775 18.8899 8.92349 18.8899C9.58825 18.8899 10.217 18.7603 10.8086 18.5C11.4012 18.2408 11.9159 17.8918 12.3516 17.4561C12.7873 17.0194 13.1363 16.5057 13.3955 15.9131C13.6548 15.3205 13.7854 14.6927 13.7854 14.027C13.7854 13.3622 13.6548 12.7335 13.3955 12.1409C13.1353 11.5483 12.7873 11.0346 12.3516 10.5979C11.9159 10.1612 11.4003 9.81326 10.8086 9.55398C10.216 9.2947 9.58728 9.16409 8.92349 9.16409C8.25775 9.16409 7.63003 9.29373 7.03739 9.55398C6.44476 9.81423 5.93108 10.1622 5.4944 10.5979C5.0587 11.0346 4.70974 11.5483 4.45047 12.1409C4.19021 12.7335 4.06057 13.3622 4.06057 14.027Z" fill="white"/>
<path d="M38.3701 13.9958C38.3701 12.8115 38.5933 11.7051 39.0398 10.6758C39.4862 9.6475 40.0944 8.75367 40.8635 7.99533C41.6316 7.23699 42.5312 6.63461 43.5596 6.18721C44.5889 5.74079 45.6952 5.5166 46.8795 5.5166C48.0638 5.5166 49.1711 5.73981 50.1994 6.18721C51.2277 6.63461 52.1216 7.23699 52.8799 7.99533C53.6382 8.75367 54.2406 9.6475 54.688 10.6758C55.1345 11.7042 55.3577 12.8115 55.3577 13.9958V21.8199H51.7414V20.9465C50.3281 21.9651 48.7071 22.4739 46.8785 22.4739C45.5899 22.4739 44.4203 22.2556 43.3714 21.8199C42.3217 21.3832 41.4278 20.7808 40.6909 20.0118C39.9531 19.2427 39.3819 18.344 38.9764 17.3157C38.5719 16.2873 38.3701 15.181 38.3701 13.9958ZM41.9854 13.9958C41.9854 14.6615 42.115 15.2892 42.3762 15.8819C42.6365 16.4745 42.9855 16.9891 43.4241 17.4248C43.8617 17.8615 44.3774 18.2095 44.9719 18.4688C45.5665 18.729 46.1972 18.8587 46.8649 18.8587C47.5316 18.8587 48.1622 18.7398 48.7558 18.5C49.3504 18.2612 49.8661 17.9229 50.3037 17.4872C50.7414 17.0506 51.0913 16.5369 51.3515 15.9442C51.6118 15.3516 51.7424 14.7024 51.7424 13.9958C51.7424 13.331 51.6118 12.7023 51.3515 12.1097C51.0913 11.517 50.7423 11.0033 50.3037 10.5667C49.8661 10.13 49.3504 9.78201 48.7558 9.52273C48.1613 9.26345 47.5316 9.13284 46.8649 9.13284C46.1972 9.13284 45.5665 9.26248 44.9719 9.52273C44.3774 9.78298 43.8617 10.131 43.4241 10.5667C42.9864 11.0033 42.6375 11.517 42.3762 12.1097C42.116 12.7023 41.9854 13.331 41.9854 13.9958Z" fill="white"/>
<path d="M61.5742 11.7211L67.2784 6.23436H72.1413L65.3143 12.8742L72.1413 21.8212H67.4343L62.6026 15.4933L61.6054 16.4592V21.8212H57.958V0H61.5742V11.7211Z" fill="white"/>
<path d="M76.7198 14.2453C76.7402 14.8896 76.8855 15.492 77.1555 16.0534C77.4255 16.6139 77.7793 17.1032 78.216 17.5184C78.6517 17.9346 79.1614 18.2621 79.7434 18.5009C80.3253 18.7398 80.9374 18.8596 81.5827 18.8596C82.6627 18.8596 83.5877 18.5945 84.3567 18.0652C85.1258 17.535 85.6872 16.8234 86.0401 15.9296H89.9985C89.6446 17.1139 89.1768 18.1228 88.5958 18.9532C88.0139 19.7847 87.3492 20.4601 86.6015 20.9797C85.8529 21.4992 85.0527 21.8784 84.2008 22.1172C83.3489 22.356 82.4755 22.4759 81.5817 22.4759C80.3974 22.4759 79.2911 22.2527 78.2618 21.8062C77.2334 21.3598 76.3377 20.7574 75.5754 19.9981C74.8122 19.2398 74.2098 18.346 73.7673 17.3176C73.3238 16.2893 73.1025 15.182 73.1025 13.9977C73.1025 12.8134 73.3238 11.7071 73.7673 10.6778C74.2098 9.64945 74.8122 8.75562 75.5754 7.99729C76.3367 7.23895 77.2334 6.63657 78.2618 6.18917C79.2911 5.74274 80.3974 5.51855 81.5817 5.51855C82.8907 5.51855 84.0643 5.75736 85.1044 6.23595C86.1434 6.71455 87.0265 7.35299 87.7537 8.15324C88.4798 8.95349 89.0471 9.88338 89.4526 10.9429C89.8581 12.0024 90.0706 13.1049 90.0911 14.2472H76.7198V14.2453ZM86.0401 11.8133C85.7282 10.94 85.1775 10.1982 84.3879 9.58414C83.5984 8.97201 82.6744 8.66497 81.6139 8.66497C80.5543 8.66497 79.6293 8.97201 78.8398 9.58414C78.0493 10.1972 77.4986 10.94 77.1876 11.8133H86.0401Z" fill="white"/>
<path d="M118.449 13.9958C118.449 12.8115 118.672 11.7051 119.119 10.6758C119.565 9.6475 120.174 8.75367 120.943 7.99533C121.711 7.23699 122.61 6.63461 123.639 6.18721C124.668 5.74079 125.774 5.5166 126.959 5.5166C128.143 5.5166 129.25 5.73981 130.279 6.18721C131.307 6.63461 132.201 7.23699 132.959 7.99533C133.717 8.75367 134.32 9.6475 134.767 10.6758C135.214 11.7042 135.437 12.8115 135.437 13.9958V21.8199H131.821V20.9465C130.407 21.9651 128.786 22.4739 126.958 22.4739C125.669 22.4739 124.499 22.2556 123.451 21.8199C122.401 21.3832 121.507 20.7808 120.77 20.0118C120.032 19.2427 119.461 18.344 119.055 17.3157C118.651 16.2873 118.449 15.181 118.449 13.9958ZM122.064 13.9958C122.064 14.6615 122.194 15.2892 122.455 15.8819C122.717 16.4745 123.065 16.9891 123.503 17.4248C123.942 17.8605 124.456 18.2095 125.051 18.4688C125.646 18.729 126.276 18.8587 126.944 18.8587C127.611 18.8587 128.241 18.7398 128.835 18.5C129.43 18.2612 129.945 17.9229 130.383 17.4872C130.82 17.0506 131.17 16.5369 131.431 15.9442C131.692 15.3516 131.821 14.7024 131.821 13.9958C131.821 13.331 131.691 12.7023 131.431 12.1097C131.17 11.517 130.821 11.0033 130.383 10.5667C129.945 10.13 129.43 9.78201 128.835 9.52273C128.24 9.26345 127.611 9.13284 126.944 9.13284C126.276 9.13284 125.646 9.26248 125.051 9.52273C124.456 9.78298 123.941 10.131 123.503 10.5667C123.066 11.0033 122.717 11.517 122.455 12.1097C122.194 12.7023 122.064 13.331 122.064 13.9958Z" fill="white"/>
<path d="M19.9196 10.6758C20.367 9.6475 20.9694 8.75367 21.7278 7.99533C22.4871 7.23699 23.3799 6.63461 24.4083 6.18721C25.4376 5.74079 26.5439 5.5166 27.7282 5.5166C28.9125 5.5166 30.0198 5.73981 31.0481 6.18721C32.0764 6.63461 32.9761 7.23699 33.7442 7.99533C34.5133 8.75367 35.1215 9.6475 35.5679 10.6758C36.0143 11.7042 36.2375 12.8105 36.2375 13.9958H32.6213C32.6213 13.331 32.4917 12.7023 32.2304 12.1097C31.9692 11.517 31.6212 11.0033 31.1826 10.5667C30.745 10.13 30.2293 9.78201 29.6347 9.52273C29.0402 9.26345 28.4095 9.13284 27.7418 9.13284C27.0751 9.13284 26.4445 9.26248 25.8508 9.52273C25.2563 9.78298 24.7406 10.131 24.303 10.5667C23.8644 11.0033 23.5154 11.517 23.2551 12.1097C22.9939 12.7023 22.8643 13.331 22.8643 13.9958V20.9475V21.8209H19.248V13.9967C19.25 12.8115 19.4722 11.7051 19.9196 10.6758Z" fill="white"/>
<path d="M92.8649 10.6758C93.3123 9.6475 93.9147 8.75367 94.6731 7.99533C95.4324 7.23699 96.3252 6.63461 97.3536 6.18721C98.3829 5.74079 99.4892 5.5166 100.673 5.5166C101.858 5.5166 102.965 5.73981 103.993 6.18721C105.022 6.63461 105.921 7.23699 106.69 7.99533C107.459 8.75367 108.067 9.6475 108.513 10.6758C108.96 11.7042 109.183 12.8105 109.183 13.9958H105.569C105.569 13.331 105.439 12.7023 105.178 12.1097C104.916 11.517 104.568 11.0033 104.13 10.5667C103.692 10.13 103.177 9.78201 102.582 9.52273C101.987 9.26345 101.357 9.13284 100.689 9.13284C100.022 9.13284 99.3917 9.26248 98.7981 9.52273C98.2035 9.78298 97.6879 10.131 97.2502 10.5667C96.8126 11.0033 96.4627 11.517 96.2024 12.1097C95.9412 12.7023 95.8115 13.331 95.8115 13.9958V20.9475V21.8209H92.1953V13.9967C92.1953 12.8115 92.4185 11.7051 92.8649 10.6758Z" fill="white"/>
<path d="M116.005 6.23438H112.326V24.4374H116.005V6.23438Z" fill="white"/>
<path d="M114.864 24.4365H112.328H110.519H106.841C106.841 25.0603 106.95 25.652 107.168 26.2134C107.387 26.7749 107.699 27.2623 108.103 27.6785C108.509 28.0937 108.992 28.4212 109.553 28.66C110.114 28.8988 110.738 29.0187 111.424 29.0187C112.068 29.0187 112.671 28.9203 113.232 28.7224C113.794 28.5245 114.276 28.2282 114.682 27.8344C115.087 27.4397 115.409 26.9562 115.647 26.385C115.886 25.8128 116.006 25.1637 116.006 24.4365H114.864Z" fill="white"/>
<path d="M100.751 16.2297C101.415 16.2297 101.966 16.0114 102.403 15.5747C102.839 15.139 103.058 14.6087 103.058 13.9849C103.058 13.3202 102.839 12.7694 102.403 12.3328C101.967 11.8961 101.416 11.6777 100.751 11.6777C100.127 11.6777 99.5976 11.8961 99.1609 12.3328C98.7242 12.7694 98.5059 13.3202 98.5059 13.9849C98.5059 14.6087 98.7242 15.138 99.1609 15.5747C99.5966 16.0114 100.127 16.2297 100.751 16.2297Z" fill="white"/>
<path d="M126.912 16.2297C127.577 16.2297 128.127 16.0114 128.564 15.5747C129.001 15.139 129.219 14.6087 129.219 13.9849C129.219 13.3202 129.001 12.7694 128.564 12.3328C128.128 11.8961 127.578 11.6777 126.912 11.6777C126.288 11.6777 125.759 11.8961 125.322 12.3328C124.885 12.7694 124.667 13.3202 124.667 13.9849C124.667 14.6087 124.885 15.138 125.322 15.5747C125.759 16.0114 126.289 16.2297 126.912 16.2297Z" fill="white"/>
<path d="M107.204 35.1699C105.868 34.6055 104.71 33.817 103.764 32.8247C102.811 31.8246 102.071 30.6969 101.565 29.4746C101.059 28.2513 100.795 26.9344 100.782 25.5601C100.77 24.4303 100.959 23.2987 101.342 22.1846L104.363 23.4595C104.156 24.1418 104.057 24.8417 104.068 25.5484C104.082 26.4938 104.263 27.3974 104.605 28.2347C104.947 29.073 105.45 29.8459 106.101 30.5321C106.76 31.2261 107.552 31.772 108.455 32.1531C109.357 32.5342 110.3 32.7214 111.256 32.7097C112.203 32.697 113.107 32.5196 113.946 32.1794C114.788 31.8392 115.563 31.3382 116.247 30.69C116.649 30.3099 117.005 29.8761 117.309 29.3956L120.353 30.6803C119.856 31.5761 119.245 32.3724 118.531 33.0538C117.532 34.0041 116.41 34.7371 115.193 35.2323C113.976 35.7265 112.66 35.9838 111.282 35.9984C109.913 36.013 108.541 35.7333 107.204 35.1699Z" fill="white"/>
</svg>
